{"title":"7th Heaven Season 10 TV-Rip XviD-LOL","uid":5306465,"size":8330514087,"categoryP":"video","categoryS":"tv_shows","magnet":"?xt=urn:btih:858bd0423bf48a9e76632890811662ea9922f2ba&amp;dn=7th+Heaven+Season+10+TV-Rip+XviD-LOL&amp;tr=udp%3A%2F%2Ftracker.openbittorrent.com%3A80&amp;tr=udp%3A%2F%2Fopen.demonii.com%3A1337&amp;tr=udp%3A%2F%2Ftracker.coppersurfer.tk%3A6969&amp;tr=udp%3A%2F%2Fexodus.desync.com%3A6969","seeders":2,"leechers":1,"uploader":"H0bbes99","files":23,"time":1264411209,"description":"7th Heaven Season 10\n\nTechnical info of first episode...\n\n7th.Heaven.S10E01.It's.Late.PDTV.XviD-lol.[sharethefiles.com].avi\nFormat                           : AVI\nFormat/Info                      : Audio Video Interleave\nFile size                        : 349 MiB\nDuration                         : 41mn 19s\nOverall bit rate                 : 1 182 Kbps\nWriting application              : VirtualDub\n\nVideo\nID                               : 0\nFormat                           : MPEG-4 Visual\nFormat profile                   : Simple@L3\nFormat settings, BVOP            : Yes\nFormat settings, QPel            : No\nFormat settings, GMC             : No warppoints\nFormat settings, Matrix          : Default (H.263)\nMuxing mode                      : Packed bitstream\nCodec ID                         : XVID\nCodec ID/Hint                    : XviD\nDuration                         : 41mn 19s\nBit rate                         : 1 030 Kbps\nWidth                            : 512 pixels\nHeight                           : 384 pixels\nDisplay aspect ratio             : 4:3\nFrame rate                       : 23.976 fps\nResolution                       : 24 bits\nColorimetry                      : 4:2:0\nScan type                        : Progressive\nBits/(Pixel*Frame)               : 0.219\nStream size                      : 305 MiB (87%)\nWriting library                  : XviD 1.1.0 Beta1 (UTC 2005-01-16)\n\nAudio\nID                               : 1\nFormat                           : MPEG Audio\nFormat version                   : Version 1\nFormat profile                   : Layer 3\nFormat settings, Mode            : Joint stereo / MS Stereo\nCodec ID                         : 55\nCodec ID/Hint                    : MP3\nDuration                         : 41mn 19s\nBit rate mode                    : Variable\nBit rate                         : 138 Kbps\nNominal bit rate                 : 134 Kbps\nChannel(s)                       : 2 channels\nSampling rate                    : 48.0 KHz\nResolution                       : 16 bits\nStream size                      : 40.9 MiB (12%)\nAlignment                        : Aligned on interleaves\nInterleave, duration             : 24 ms (0.58 video frame)\nInterleave, preload duration     : 471 ms\nWriting library                  : LAME3.90.\nEncoding settings                : -m j -V 4 -q 2 -lowpass 17.6 --abr 134\n\n","torrent":{"xt":"urn:btih:858bd0423bf48a9e76632890811662ea9922f2ba","amp;dn":"7th+Heaven+Season+10+TV-Rip+XviD-LOL","amp;tr":["udp%3A%2F%2Ftracker.openbittorrent.com%3A80","udp%3A%2F%2Fopen.demonii.com%3A1337","udp%3A%2F%2Ftracker.coppersurfer.tk%3A6969","udp%3A%2F%2Fexodus.desync.com%3A6969"],"infoHash":"858bd0423bf48a9e76632890811662ea9922f2ba","infoHashBuffer":{"type":"Buffer","data":[133,139,208,66,59,244,138,158,118,99,40,144,129,22,98,234,153,34,242,186]},"announce":[],"urlList":[]}}